<?xml version="1.0" encoding="UTF-8"?>
<svg width="150px" height="150px" viewBox="0 0 150 150" version="1.1" xmlns="http://www.w3.org/2000/svg" xmlns:xlink="http://www.w3.org/1999/xlink">
    <!-- Generator: Sketch 49.3 (51167) - http://www.bohemiancoding.com/sketch -->
    <title>pcbaoz@3x</title>
    <desc>Created with Sketch.</desc>
    <defs></defs>
    <g id="Page-1" stroke="none" stroke-width="1" fill="none" fill-rule="evenodd">
        <g id="pc端" transform="translate(-1518.000000, -3553.000000)" fill="#BEBEBE" fill-rule="nonzero">
            <g id="Group-5" transform="translate(1518.000000, 3553.000000)">
                <g id="pcbaoz" transform="translate(16.000000, 4.000000)">
                    <path d="M118.204849,27.8890213 C117.320665,26.0856533 116.409697,26.0856533 114.613985,26.0856533 C102.072326,26.0856533 85.9674304,12.5989228 75.2212036,7.1875508 C68.9505846,3.58025119 64.4753975,0.888230258 60.8843936,0 L59.1156064,0 C55.5247428,0.888230258 51.0494154,3.6072996 44.7787964,6.29932054 C34.0329903,11.6833624 17.9273932,25.197423 5.38601504,26.0857942 C3.59086367,26.0857942 2.70611952,26.0857942 1.79515137,27.8891622 C0,28.7773925 0,30.581324 0,32.3846921 C2.67989552,88.1369542 22.3762161,122.325578 57.2935299,142.11177 C58.1777131,143 59.0886813,143 59.9734254,143 C60.8581696,143 61.7685768,143 62.6533209,142.11177 C97.6244851,122.325296 117.320525,88.1632983 120,32.3846921 C120,30.581324 120,28.8044409 118.204849,27.8891622 L118.204849,27.8890213 Z M87.7620208,59.3589983 L54.6402791,92.6593916 C53.7560959,93.5476219 52.8451277,93.5476219 51.9603835,92.6593916 L32.264063,72.872918 C31.3798797,71.9846877 31.3798797,71.06955 32.264063,70.1807562 L38.5346819,63.8814356 C39.4188651,62.9932054 40.3298333,62.9932054 41.2145775,63.8814356 L53.7562361,76.4804994 L78.8122075,51.309843 C79.6963907,50.4216127 80.6073588,50.4216127 81.492103,51.309843 L87.762722,57.6091635 C88.6739706,57.5821151 88.6739706,58.4704862 87.762722,59.3589983 L87.7620208,59.3589983 Z" id="Shape"></path>
                </g>
            </g>
        </g>
    </g>
</svg>