<?xml version="1.0" encoding="UTF-8"?>
<svg width="150px" height="150px" viewBox="0 0 150 150" version="1.1" xmlns="http://www.w3.org/2000/svg" xmlns:xlink="http://www.w3.org/1999/xlink">
    <!-- Generator: Sketch 49.3 (51167) - http://www.bohemiancoding.com/sketch -->
    <title>pcjineng@3x</title>
    <desc>Created with Sketch.</desc>
    <defs></defs>
    <g id="Page-1" stroke="none" stroke-width="1" fill="none" fill-rule="evenodd">
        <g id="pc端" transform="translate(-1104.000000, -3548.000000)" fill="#BEBEBE" fill-rule="nonzero">
            <g id="Group-4" transform="translate(1104.000000, 3548.000000)">
                <g id="pcjineng" transform="translate(18.000000, 4.000000)">
                    <path d="M117.911535,57.1343032 L117.860811,56.3287854 C117.794152,54.7340506 116.973207,53.255905 115.649515,52.3496522 L108.893414,47.7172064 L113.049344,40.4773159 C113.838843,39.0966118 113.941388,37.4349993 113.320866,35.97268 C109.170697,26.1849653 102.36345,17.6450927 93.6421436,11.291414 C92.3293276,10.3383245 90.6362627,10.0585328 89.0918014,10.5371709 L81.2228865,12.9521611 L78.1811192,5.23781925 C77.6008959,3.74976479 76.3445371,2.61937715 74.7947926,2.1853985 C64.3093228,-0.728466165 53.6905368,-0.728466165 43.2043925,2.1853985 C41.6552662,2.61937715 40.3989355,3.7451593 39.8134009,5.23321376 L36.7714369,12.952189 L28.9124983,10.5371988 C27.363372,10.0583373 25.6756465,10.3438511 24.3621561,11.2914419 C15.6313229,17.6450927 8.82340135,26.1849652 4.67300779,35.9727079 C4.0524861,37.4350273 4.15036558,39.1012451 4.93986491,40.4773438 L9.10043152,47.7172343 L2.34435839,52.3496801 C1.03640404,53.2515229 0.215233768,54.703068 0.138402678,56.2828419 L0.092343391,57.0269807 C0.0405231963,57.6892811 0,58.3518046 0,59.0187384 C0,68.8434089 2.46727675,78.5748247 7.13567584,87.1705775 C7.90058593,88.5774633 9.28005997,89.5453184 10.8703837,89.7899128 L18.9705223,91.027874 L18.381222,99.1392667 C18.2676054,100.724763 18.898553,102.267804 20.0937617,103.317442 C28.1994365,110.456374 38.0896203,115.221012 48.6986549,117.095538 C48.996059,117.151418 49.2990273,117.17693 49.5964596,117.17693 C50.8840398,117.17693 52.1357339,116.693463 53.095307,115.806107 L59.0001125,110.344865 L64.9097796,115.806107 C66.0895042,116.897362 67.7163607,117.390542 69.3059821,117.095538 C79.9048437,115.221235 89.7952524,110.456374 97.9055638,103.317442 C99.1005478,102.267804 99.7323946,100.719013 99.6245389,99.1392668 L99.0294777,91.0278741 L107.129616,89.789913 C108.71949,89.5453185 110.094749,88.5820969 110.864099,87.1760764 C115.527159,78.584929 118,68.8579233 118,59.0187386 C117.993705,58.3819221 117.957594,57.7607364 117.911535,57.1343032 Z M58.9996066,86.599969 C43.4143431,86.599969 30.7798241,74.0609222 30.7798241,58.5809918 C30.7798241,43.1014801 43.409678,30.5565159 58.9996066,30.5565159 C74.5844205,30.5565159 87.2143026,43.10148 87.2143026,58.5809918 C87.2143025,74.0609222 74.5844205,86.599969 58.9996066,86.599969 Z M99.1155543,109.319594 C90.8360403,115.999901 81.0271275,120.498815 70.5567204,122.354222 C69.9463718,122.465954 69.3355734,122.440443 68.7409619,122.343001 L73.2199811,139.178571 C73.937736,141.150343 75.5590282,142.541179 77.5643634,142.908281 C77.9031899,142.969241 78.2469063,143 78.5857328,143 C80.2272025,143 81.8121869,142.276544 82.9254783,140.982284 L90.9693565,131.835963 L105.907711,135.479452 C108.221522,136.090506 110.565684,135.326131 111.909946,133.512509 C113.248672,131.7086 113.294731,129.242558 111.853489,127.000261 L99.1155543,109.319594 Z M49.4267793,122.435139 C49.1089732,122.435139 48.7856589,122.410074 48.4625413,122.3485 C37.6178709,120.432831 27.4856159,115.66864 19.031813,108.600995 L5.92402724,127.306709 C4.67233319,129.349518 4.75006356,131.744244 6.12445114,133.558313 C7.49906354,135.372102 9.78718973,136.096256 11.9931454,135.499717 L26.9111537,131.835991 L34.8781728,140.967128 C36.022011,142.281652 37.5817598,142.994976 39.2178901,142.994976 C39.6030008,142.994976 39.9930012,142.954057 40.3772408,142.872665 C42.4093572,142.449684 44.0045426,140.9671 44.6456631,138.882758 L49.6012932,122.409879 C49.5348599,122.404352 49.4832645,122.435139 49.4267793,122.435139 Z" id="Shape"></path>
                </g>
            </g>
        </g>
    </g>
</svg>