<?xml version="1.0" encoding="UTF-8"?>
<svg width="150px" height="150px" viewBox="0 0 150 150" version="1.1" xmlns="http://www.w3.org/2000/svg" xmlns:xlink="http://www.w3.org/1999/xlink">
    <!-- Generator: Sketch 49.3 (51167) - http://www.bohemiancoding.com/sketch -->
    <title>pcleimu@3x</title>
    <desc>Created with Sketch.</desc>
    <defs></defs>
    <g id="Page-1" stroke="none" stroke-width="1" fill="none" fill-rule="evenodd">
        <g id="pc端" transform="translate(-679.000000, -3542.000000)" fill="#BEBEBE" fill-rule="nonzero">
            <g id="Group-3" transform="translate(679.000000, 3542.000000)">
                <g id="pcleimu" transform="translate(16.000000, 20.000000)">
                    <path d="M10.8361204,0 L43.1638796,0 C49.1237458,0 54,4.87625418 54,10.8361204 L54,43.1638796 C54,49.1237458 49.1237458,54 43.1638796,54 L10.8361204,54 C4.87625418,54 1.27636196e-15,49.1237458 1.27636196e-15,43.1638796 L0,10.8361204 C0,4.87625418 4.87625418,0 10.8361204,0 Z" id="Shape"></path>
                    <path d="M10.8361204,65 L43.1638796,65 C49.1237458,65 54,69.8762542 54,75.8361204 L54,108.16388 C54,114.123746 49.1237458,119 43.1638796,119 L10.8361204,119 C4.87625418,119 1.27636196e-15,114.123746 1.27636196e-15,108.16388 L0,75.6555183 C0,69.6956521 4.87625418,65 10.8361204,65 Z" id="Shape"></path>
                    <path d="M75.8361204,0 L108.16388,0 C114.123746,0 119,4.87625418 119,10.8361204 L119,43.1638796 C119,49.1237458 114.123746,54 108.16388,54 L75.8361204,54 C69.8762542,54 65,49.1237458 65,43.1638796 L65.0000001,10.8361204 C65.0000001,4.87625418 69.8762543,0 75.8361204,0 Z" id="Shape"></path>
                    <path d="M75.8361204,65 L108.16388,65 C114.123746,65 119,69.8762542 119,75.8361204 L119,108.16388 C119,114.123746 114.123746,119 108.16388,119 L75.8361204,119 C69.8762542,119 65,114.123746 65,108.16388 L65.0000001,75.6555183 C65.0000001,69.6956521 69.8762543,65 75.8361204,65 Z" id="Shape"></path>
                </g>
            </g>
        </g>
    </g>
</svg>