<?xml version="1.0" encoding="UTF-8"?>
<svg width="432px" height="119px" viewBox="0 0 432 119" version="1.1" xmlns="http://www.w3.org/2000/svg" xmlns:xlink="http://www.w3.org/1999/xlink">
    <!-- Generator: Sketch 49.3 (51167) - http://www.bohemiancoding.com/sketch -->
    <title>pclogo@3x</title>
    <desc>Created with Sketch.</desc>
    <defs>
        <linearGradient x1="50%" y1="0%" x2="50%" y2="100%" id="linearGradient-1">
            <stop stop-color="#FBCE55" offset="0%"></stop>
            <stop stop-color="#FE8505" offset="100%"></stop>
        </linearGradient>
        <linearGradient x1="57.3572257%" y1="0%" x2="35.6454367%" y2="84.3322378%" id="linearGradient-2">
            <stop stop-color="#FBCE55" offset="0%"></stop>
            <stop stop-color="#FE8505" offset="100%"></stop>
        </linearGradient>
        <polygon id="path-3" points="0.685097959 0.76435463 32.3008243 0.76435463 32.3008243 31.9537037 0.685097959 31.9537037"></polygon>
        <polygon id="path-5" points="0.92083934 0.287693519 29.8088629 0.287693519 29.8088629 35.5127954 0.92083934 35.5127954"></polygon>
        <polygon id="path-7" points="0.544217259 0.635768519 55.926311 0.635768519 55.926311 67.4678213 0.544217259 67.4678213"></polygon>
    </defs>
    <g id="Page-1" stroke="none" stroke-width="1" fill="none" fill-rule="evenodd">
        <g id="pc端" transform="translate(-148.000000, -78.000000)">
            <g id="pclogo" transform="translate(148.000000, 78.000000)">
                <polygon id="Fill-1" fill="url(#linearGradient-1)" points="181 89.1321657 172.717141 89.1321657 156.976706 102.252618 160.592602 89 153.912483 89 146 118 152.681232 118 154.756673 110.389002 160.455796 105.665989 165.677768 117.868927 174.095208 117.868927 165.912451 101.336196"></polygon>
                <polygon id="Fill-2" fill="url(#linearGradient-1)" points="202.717141 89.1321657 186.977819 102.252618 190.593714 89 183.912483 89 176 118 182.680119 118 184.757786 110.389002 190.455796 105.665989 195.677768 117.868927 204.095208 117.868927 195.912451 101.336196 211 89.1321657"></polygon>
                <g id="Group-48">
                    <path d="M233.413815,88.3184944 L225.381336,98.1150593 C224.818655,98.9072907 224.030683,99.8802259 223.019617,101.026152 C222.773445,99.9661704 222.459135,98.9976426 222.081084,98.1150593 L218.890731,88.3184944 L211.365983,88.3184944 L218.076384,106.188328 L215.033295,117.572661 L221.634896,117.572661 L224.712054,106.056106 L241.071541,88.3184944 L233.413815,88.3184944 Z" id="Fill-3" fill="#FFFFFF"></path>
                    <path d="M294.408459,88.3184944 L290.056479,104.600559 C289.51468,106.63017 289.156411,108.129791 288.984969,109.100522 L288.949802,109.232744 C288.897051,108.440513 288.627799,107.469781 288.144246,106.321652 L281.865746,88.3184944 L274.736632,88.3184944 L266.917355,117.572661 L273.122223,117.572661 L277.402769,101.556143 C277.945667,99.5254296 278.348995,97.8484111 278.616048,96.525087 C278.739134,97.0550778 279.017177,97.982837 279.45787,99.3061611 L286.06167,117.572661 L292.795149,117.572661 L300.613327,88.3184944 L294.408459,88.3184944 Z" id="Fill-5" fill="#FFFFFF"></path>
                    <path d="M313.658936,100.762809 L312.244542,106.056106 L320.825415,106.056106 L319.869299,109.631615 C318.007619,111.661226 315.404124,112.67493 312.061012,112.67493 C307.247459,112.233087 305.555022,109.014578 306.984801,103.012791 C308.890441,97.1873 312.10607,94.0569389 316.626195,93.6139944 C320.058324,93.6139944 322.123316,94.9373185 322.826667,97.5850685 L329.500801,95.3339852 C328.531497,90.3932815 324.703733,87.9229296 318.014212,87.9229296 C309.071773,88.4518185 303.073514,93.4399019 300.022733,102.880569 C297.779705,112.587883 301.231616,117.615633 310.380664,117.97043 C317.247121,117.97043 322.255195,115.851569 325.412578,111.61605 L328.312799,100.762809 L313.658936,100.762809 Z" id="Fill-7" fill="#FFFFFF"></path>
                    <path d="M350.191607,97.4529565 C349.59376,100.011456 347.53646,101.291808 344.015313,101.291808 L338.339057,101.291808 L340.426029,93.4818824 L346.102285,93.4818824 C349.735529,93.3926324 351.097171,94.719262 350.191607,97.4529565 M357.294346,97.055188 C358.540595,91.4092991 355.620592,88.4971046 348.538734,88.3186046 L335.204752,88.3186046 L327.386574,117.572771 L333.988176,117.572771 L337.030166,106.188438 L340.859029,106.188438 L344.981321,117.440549 L353.298437,117.440549 L347.829889,105.791771 C352.929178,104.82104 356.082166,101.909947 357.294346,97.055188" id="Fill-9" fill="#FFFFFF"></path>
                    <polygon id="Fill-11" fill="#FFFFFF" points="368.475087 93.7459963 384.319151 93.7459963 385.768712 88.3182741 363.324146 88.3182741 355.505968 117.572441 378.347268 117.572441 379.726493 112.410265 363.486795 112.410265 365.327595 105.525894 380.114435 105.525894 381.563996 100.101478 366.777156 100.101478"></polygon>
                    <path d="M404.787742,104.601 C404.245943,106.630611 403.887674,108.130231 403.716232,109.100963 L403.681064,109.233185 C403.628313,108.439852 403.359062,107.470222 402.875509,106.322093 L396.597009,88.3189352 L389.466795,88.3189352 L381.648618,117.572 L387.853486,117.572 L392.132932,101.555481 C392.675831,99.5258704 393.079158,97.8488519 393.346212,96.5255278 C393.470397,97.0544167 393.74844,97.9821759 394.188034,99.3055 L400.792932,117.572 L407.525313,117.572 L415.343491,88.3189352 L409.139722,88.3189352 L404.787742,104.601 Z" id="Fill-13" fill="#FFFFFF"></path>
                    <path d="M35.9087779,0.658907407 L95.0484454,0.658907407 L7.77916371,76.836537 L26.1278135,8.18455556 C27.313618,3.74519444 31.3249124,0.658907407 35.9087779,0.658907407 Z M1.52473147,100.258161 L35.4328076,70.7946426 L63.8448609,117.415096 L10.1330792,117.415096 C3.47323147,117.415096 -1.37329137,111.082754 0.351015736,104.634717 L1.52473147,100.258161 Z M153.986339,0.658907407 L87.3450018,59.1418981 L122.781766,117.415537 L92.9443292,117.415537 C88.0989053,117.415537 83.6029586,114.884583 81.0807886,110.736111 L61.5287505,78.5884815 L61.5320475,78.5851759 L49.6476261,59.0372222 L110.086294,6.13841667 C114.121766,2.60587963 119.297984,0.658907407 124.655535,0.658907407 L153.986339,0.658907407 Z" id="Combined-Shape" fill="url(#linearGradient-2)"></path>
                    <g id="Group-23" transform="translate(236.281726, 87.046296)">
                        <mask id="mask-4" fill="white">
                            <use xlink:href="#path-3"></use>
                        </mask>
                        <g id="Clip-22"></g>
                        <path d="M24.5508802,15.227262 C24.0508421,17.0971046 22.9485604,18.8137898 21.5121873,20.1778824 L21.5297711,20.1789843 L21.3693193,20.3189194 C21.3550325,20.3332435 21.3396467,20.3453639 21.3242609,20.3585861 L11.866398,28.6852806 L8.60571015,19.4021787 L8.6167,19.4032806 C8.1979868,18.1857343 8.14303756,16.759938 8.55295888,15.227262 C9.73766447,10.7978176 14.2764716,7.20798426 18.6954893,7.20798426 C23.1123091,7.20798426 25.7333878,10.7978176 24.5508802,15.227262 M19.299931,0.76435463 C10.709167,0.76435463 2.48876091,7.74678981 0.939192386,16.3588639 C-0.611475127,24.9720398 5.09555279,31.954475 13.6852178,31.954475 C22.2770807,31.954475 30.4963878,24.9720398 32.0470553,16.3588639 C33.5966239,7.74678981 27.8895959,0.76435463 19.299931,0.76435463" id="Fill-21" fill="#FFFFFF" mask="url(#mask-4)"></path>
                    </g>
                    <polygon id="Fill-24" fill="#FFFFFF" points="164.251736 67.4790602 172.13915 67.4790602 179.007805 41.761838 185.833599 41.761838 185.833599 34.1215972 181.04862 34.1215972 189.984465 0.662763889 182.095952 0.662763889 173.160107 34.1215972 169.891726 34.1215972 175.189932 14.2992824 167.301419 14.2992824 159.9613 41.761838 171.120391 41.761838"></polygon>
                    <path d="M212.46222,16.1503935 C213.989809,16.1503935 215.399806,16.8478657 216.326251,18.065412 C217.253794,19.2818565 217.556014,20.8277546 217.153786,22.3075417 L213.946948,34.1215972 L207.050819,34.1215972 L211.853382,16.1503935 L212.46222,16.1503935 Z M199.162306,34.1215972 L188.331811,34.1215972 L188.331811,41.761838 L197.121492,41.761838 L195.351027,48.3905787 C193.33439,55.9327546 186.485517,61.2007083 178.695913,61.2007083 L178.695913,68.8398472 C189.927537,68.8398472 199.801915,61.2436806 202.709829,50.3673009 L205.010004,41.761838 L226.624837,41.761838 L226.624837,34.1215972 L221.843154,34.1215972 L224.505994,24.3140139 C225.535743,20.520338 224.762058,16.5525694 222.380558,13.4266157 C220.28919,10.6819028 217.243903,8.96521759 213.873316,8.59058796 L215.992159,0.662763889 L208.103646,0.662763889 L206.007882,8.51015278 L193.644304,8.51015278 L193.644304,16.1503935 L203.965969,16.1503935 L199.162306,34.1215972 Z" id="Fill-26" fill="#FFFFFF"></path>
                    <polygon id="Fill-28" fill="#FFFFFF" points="216.332295 67.4661685 225.114282 67.4661685 214.254115 48.466937 205.473226 48.466937"></polygon>
                    <polygon id="Fill-30" fill="#FFFFFF" points="238.861483 67.4790602 246.748896 67.4790602 253.617551 41.761838 260.442247 41.761838 260.442247 34.1215972 255.657267 34.1215972 264.594211 0.662763889 256.705698 0.662763889 247.769853 34.1215972 244.501473 34.1215972 249.799678 14.2992824 241.911165 14.2992824 234.571046 41.761838 245.730138 41.761838"></polygon>
                    <path d="M287.070868,16.1503935 C288.599555,16.1503935 290.009553,16.8478657 290.935997,18.065412 C291.86354,19.2818565 292.165761,20.8277546 291.763532,22.3075417 L288.556695,34.1215972 L281.660565,34.1215972 L286.463129,16.1503935 L287.070868,16.1503935 Z M273.772053,34.1215972 L262.940459,34.1215972 L262.940459,41.761838 L271.731238,41.761838 L269.959675,48.3905787 C267.943038,55.9327546 261.095263,61.2007083 253.305659,61.2007083 L253.305659,68.8398472 C264.536185,68.8398472 274.410563,61.2436806 277.319576,50.3673009 L279.619751,41.761838 L301.234583,41.761838 L301.234583,34.1215972 L296.452901,34.1215972 L299.115741,24.3140139 C300.145489,20.520338 299.371804,16.5525694 296.990304,13.4266157 C294.897837,10.6819028 291.853649,8.96521759 288.483063,8.59058796 L290.601906,0.662763889 L282.713393,0.662763889 L280.61653,8.51015278 L268.252951,8.51015278 L268.252951,16.1503935 L278.575715,16.1503935 L273.772053,34.1215972 Z" id="Fill-32" fill="#FFFFFF"></path>
                    <polygon id="Fill-34" fill="#FFFFFF" points="290.941931 67.4661685 299.723919 67.4661685 288.863751 48.466937 280.082863 48.466937"></polygon>
                    <g id="Group-38" transform="translate(402.228426, 31.953704)">
                        <mask id="mask-6" fill="white">
                            <use xlink:href="#path-5"></use>
                        </mask>
                        <g id="Clip-37"></g>
                        <polygon id="Fill-36" fill="#FFFFFF" mask="url(#mask-6)" points="9.70172766 0.287693519 0.92083934 0.287693519 21.0267657 35.5127954 29.809852 35.5127954"></polygon>
                    </g>
                    <path d="M373.304686,68.840288 C384.53631,68.840288 394.410688,61.2430194 397.318602,50.3666398 L410.600932,0.664306481 L402.712419,0.664306481 L389.957602,48.3899176 C387.940965,55.9331954 381.09429,61.2000472 373.304686,61.2000472 L373.304686,68.840288 Z" id="Fill-39" fill="#FFFFFF"></path>
                    <g id="Group-43" transform="translate(322.002538, 0.000000)">
                        <mask id="mask-8" fill="white">
                            <use xlink:href="#path-7"></use>
                        </mask>
                        <g id="Clip-42"></g>
                        <path d="M19.8522807,21.0743491 L7.09856244,21.0743491 L7.09856244,28.7156917 L17.810367,28.7156917 L15.0068569,39.2009139 L0.544217259,39.2009139 L0.544217259,46.8411546 L12.9638442,46.8411546 L7.45023756,67.4678213 L15.3387503,67.4678213 L20.8523569,46.8411546 L36.8711589,46.8411546 L36.8711589,39.2009139 L22.8953695,39.2009139 L25.6977807,28.7156917 L38.4877655,28.7156917 L38.4877655,21.0743491 L27.7407934,21.0743491 L31.160834,8.27523796 L41.1429127,8.27523796 C43.3892376,8.27523796 45.4597249,9.30106204 46.824664,11.0882657 C48.190702,12.8776731 48.6368898,15.1485898 48.048933,17.3236454 L36.5920168,59.8209694 L27.4693442,59.8209694 L27.4693442,67.4612102 L42.422131,67.4612102 L55.4055371,19.3190991 C56.6155193,14.8301546 55.6945701,10.1362657 52.8767731,6.44616389 C50.0578772,2.75275648 45.7817274,0.634997222 41.1429127,0.634997222 L12.5088645,0.634997222 L12.5088645,8.27523796 L23.2734203,8.27523796 L19.8522807,21.0743491 Z" id="Fill-41" fill="#FFFFFF" mask="url(#mask-8)"></path>
                    </g>
                    <path d="M253.766464,98.7646009 C251.810271,98.7646009 249.79803,100.354573 249.273814,102.318073 C248.749598,104.280471 249.910126,105.870444 251.867418,105.870444 C253.82471,105.870444 255.836951,104.280471 256.360068,102.318073 C256.885382,100.354573 255.723756,98.7646009 253.766464,98.7646009" id="Fill-44" fill="#FFFFFF"></path>
                    <polygon id="Fill-46" fill="#FFFFFF" points="329.542782 0.662102778 321.65427 0.662102778 303.789173 67.4795009 311.677686 67.4795009"></polygon>
                </g>
            </g>
        </g>
    </g>
</svg>