<?xml version="1.0" encoding="UTF-8"?>
<svg width="175px" height="161px" viewBox="0 0 175 161" version="1.1" xmlns="http://www.w3.org/2000/svg" xmlns:xlink="http://www.w3.org/1999/xlink">
    <!-- Generator: Sketch 49.3 (51167) - http://www.bohemiancoding.com/sketch -->
    <title>pcnian@3x</title>
    <desc>Created with Sketch.</desc>
    <defs></defs>
    <g id="Page-1" stroke="none" stroke-width="1" fill="none" fill-rule="evenodd">
        <g id="pc端" transform="translate(-322.000000, -12237.000000)" fill="#F5C269" fill-rule="nonzero">
            <g id="pcnian" transform="translate(322.000000, 12237.000000)">
                <path d="M149.90005,12.3846154 L129.610195,12.3846154 L129.610195,31.9209101 C129.610195,37.851571 124.712644,42.7356446 118.678161,42.7356446 C112.643678,42.7356446 107.746127,37.9387866 107.746127,31.9209101 L107.746127,12.3846154 L67.1664168,12.3846154 L67.1664168,31.9209101 C67.1664168,37.851571 62.2688656,42.7356446 56.2343828,42.7356446 C50.1999,42.7356446 45.3023488,37.9387866 45.3023488,31.9209101 L45.3023488,12.3846154 L25.0124938,12.3846154 C11.2818591,12.3846154 0,23.5482124 0,37.1538462 L0,136.230769 C0,149.836403 11.2818591,161 25.0124938,161 L149.987506,161 C163.718141,161 175,149.836403 175,136.230769 L175,37.1538462 C174.912544,23.5482124 163.630685,12.3846154 149.90005,12.3846154 Z M162.406297,136.230769 C162.406297,143.033586 156.809095,148.615385 149.90005,148.615385 L25.0124938,148.615385 C18.1034483,148.615385 12.5062469,143.033586 12.5062469,136.230769 L12.5062469,61.9230769 L162.406297,61.9230769 L162.406297,136.230769 Z M118.678161,37.1538462 C122.088956,37.1538462 124.887556,34.3629469 124.887556,30.9615385 L124.887556,6.19230769 C124.887556,2.79089924 122.088956,0 118.678161,0 C115.267366,0 112.468766,2.79089924 112.468766,6.19230769 L112.468766,30.9615385 C112.468766,34.3629469 115.267366,37.1538462 118.678161,37.1538462 Z M56.1469265,37.1538462 C59.5577211,37.1538462 62.3563218,34.3629469 62.3563218,30.9615385 L62.3563218,6.19230769 C62.3563218,2.79089924 59.5577211,0 56.1469265,0 C52.7361319,0 49.9375312,2.79089924 49.9375312,6.19230769 L49.9375312,30.9615385 C49.9375312,34.3629469 52.7361319,37.1538462 56.1469265,37.1538462 Z M70.6646677,129.253521 L102.673663,129.253521 L102.673663,133.875948 L112.906047,133.875948 L112.906047,73.2611051 L60.4322839,73.2611051 L60.4322839,133.875948 L70.6646677,133.875948 L70.6646677,129.253521 Z M70.6646677,82.5931744 L102.673663,82.5931744 L102.673663,96.460455 L70.6646677,96.460455 L70.6646677,82.5931744 Z M70.6646677,105.530878 L102.673663,105.530878 L102.673663,119.921452 L70.6646677,119.921452 L70.6646677,105.530878 Z" id="Shape"></path>
            </g>
        </g>
    </g>
</svg>