<?xml version="1.0" encoding="UTF-8"?>
<svg width="173px" height="160px" viewBox="0 0 173 160" version="1.1" xmlns="http://www.w3.org/2000/svg" xmlns:xlink="http://www.w3.org/1999/xlink">
    <!-- Generator: Sketch 49.3 (51167) - http://www.bohemiancoding.com/sketch -->
    <title>pcri@3x</title>
    <desc>Created with Sketch.</desc>
    <defs></defs>
    <g id="Page-1" stroke="none" stroke-width="1" fill="none" fill-rule="evenodd">
        <g id="pc端" transform="translate(-1425.000000, -12236.000000)" fill="#C36BF0" fill-rule="nonzero">
            <g id="pcri" transform="translate(1425.000000, 12236.000000)">
                <path d="M148.285991,13 L128.235908,13 L128.235908,32.3300241 C128.235908,38.2287236 123.41261,43.0104471 117.462085,43.0104471 C111.51156,43.0104471 106.688262,38.2289636 106.688262,32.3300241 L106.688262,13 L66.3921504,13 L66.3921504,32.3300241 C66.3921504,38.2287236 61.5688531,43.0104471 55.6183276,43.0104471 C49.667802,43.0104471 44.844505,38.2289636 44.844505,32.3300241 L44.844505,13 L24.7142512,13 C11.1211467,13 0,24.0247359 0,37.4997599 L0,135.49976 C0,148.974784 11.1211465,160 24.7142512,160 L148.285991,160 C161.878369,160 173,148.975264 173,135.49976 L173,37.4997599 C173.000242,24.0247359 161.878611,13 148.285991,13 Z M160.642874,135.50024 C160.642874,142.237392 155.082059,147.75 148.285991,147.75 L24.7142512,147.75 C17.9179412,147.75 12.3571256,142.237392 12.3571256,135.50024 L12.3571256,61.99976 L160.642874,61.99976 L160.642874,135.50024 Z" id="Shape"></path>
                <path d="M62.3224231,31.6712983 C62.3224231,35.1665123 59.5638699,38.0000002 56.1610907,38 C52.7583115,38 50,35.1665121 50,31.6712983 L50,6.32845367 C50.0002415,2.83348773 52.7583115,0 56.1613322,0 C59.5641114,0 62.3226646,2.83348793 62.3226646,6.32845367 L62.3224231,31.6712983 Z M124,31.6712983 C124,35.1665123 121.241688,38.0000002 117.838668,38 C114.435888,38 111.677335,35.1665121 111.677335,31.6712983 L111.677335,6.32845367 C111.677335,2.83348773 114.435888,0 117.838668,0 C121.241688,0 124,2.83348793 124,6.32845367 L124,31.6712983 Z" id="Shape"></path>
                <path d="M54.893617,89.6931911 C57.9770071,86.4075207 61.3545816,81.4770816 65.0212766,74.9011483 C67.1418156,70.4553177 69.3617022,68.5202672 71.6765957,69.1003473 C74.5702127,69.6804273 75.7279007,71.3256796 75.1489363,74.0310282 C74.9543405,74.4206486 74.6652199,74.8059186 74.280851,75.1911885 C73.8919006,76.1611309 73.7021277,76.7412109 73.7021277,76.9314287 L114.502128,76.9314287 C117.201149,77.126239 118.647958,78.5764392 118.842553,81.2820296 C118.842553,84.1824301 117.490993,85.6326305 114.79173,85.6326303 L94.825532,85.6326303 L94.825532,94.6236302 L113.634042,94.6236302 C115.948936,94.8186822 117.296397,96.173411 117.685347,98.6844327 C117.490752,101.394374 116.238539,102.744752 113.923163,102.744752 L94.825532,102.744752 L94.825532,116.956956 L116.527659,116.956956 C118.842553,117.152008 120,118.602208 120,121.307557 C119.805404,124.017739 118.553191,125.368117 116.238298,125.368117 L94.825532,125.368117 L94.825532,135.229479 C94.6309362,137.5498 93.1841278,138.804948 90.4851064,139 C87.5914893,139 86.1446807,137.840082 86.1446807,135.519761 L86.1446807,125.368359 L56.0510639,125.368359 C53.5418158,125.368359 52.1897731,124.017981 52,121.307798 C52.1897731,118.60245 53.5418156,117.15225 56.0510639,116.957198 L62.7066241,116.957198 L62.7066241,101.585075 C62.3176736,96.7539743 64.8269219,94.4336541 70.2297873,94.6238719 L86.1446807,94.6238719 L86.1446807,85.6328721 L69.0723404,85.6328721 C66.3687375,90.2732712 63.574468,93.7539936 60.680851,96.0740722 C57.9770071,98.0091228 55.6621135,98.1043527 53.7361703,96.3641123 C52.1897731,94.4336541 52.5787236,92.2083217 54.893617,89.6931911 Z M71.0978723,104.775274 L71.0978723,116.956956 L86.1444397,116.956956 L86.1444397,102.744993 L73.1231632,102.744993 C71.5770071,102.939804 70.9032768,103.615113 71.0978723,104.775274 Z" id="Shape"></path>
            </g>
        </g>
    </g>
</svg>