<?xml version="1.0" encoding="UTF-8"?>
<svg width="150px" height="150px" viewBox="0 0 150 150" version="1.1" xmlns="http://www.w3.org/2000/svg" xmlns:xlink="http://www.w3.org/1999/xlink">
    <!-- Generator: Sketch 49.3 (51167) - http://www.bohemiancoding.com/sketch -->
    <title>pctoum@3x</title>
    <desc>Created with Sketch.</desc>
    <defs></defs>
    <g id="Page-1" stroke="none" stroke-width="1" fill="none" fill-rule="evenodd">
        <g id="pc端" transform="translate(-281.000000, -3538.000000)" fill="#BEBEBE" fill-rule="nonzero">
            <g id="Group" transform="translate(281.000000, 3538.000000)">
                <g id="pctoum" transform="translate(24.000000, 2.000000)">
                    <path d="M72.7412399,115 L31.2587601,115 C27.8382749,115 25,117.707317 25,121 C25,124.292683 27.7654987,127 31.2587601,127 L72.7412399,127 C76.1617251,127 79,124.292683 79,121 C79,117.707317 76.1617251,115 72.7412399,115 Z" id="Shape"></path>
                    <path d="M62.7730061,133 L40.1554192,133 C36.791411,133 34,135.707317 34,139 C34,142.292683 36.7198364,145 40.1554192,145 L62.8445808,145 C66.208589,145 69,142.292683 69,139 C68.9284254,135.707317 66.208589,133 62.7730061,133 Z" id="Shape"></path>
                    <path d="M52.0360024,0 C23.3115517,0 0,22.2478463 0,49.6242545 C0,64.2153744 6.63982278,77.7952286 18.0429967,87.1133201 C20.3525003,88.991385 21.723768,91.8084824 21.723768,94.8422797 L21.723768,99.0318091 C21.723768,104.521537 26.1984312,109 31.6113302,109 L72.3885027,109 C77.8735737,109 82.2760649,104.521537 82.2760649,99.0318091 L82.2760649,94.8422797 C82.2760649,91.8084824 83.6473326,88.991385 85.9568362,87.1133201 C97.3600101,77.7229954 103.999833,64.2153744 103.999833,49.6242545 C104.072005,22.2478463 80.7604531,0 52.0360024,0 Z M64.5217561,53.3803844 L64.5217561,56.3419483 L56.1498057,56.3419483 L56.1498057,63.2041087 L63.5835203,63.2041087 L63.5835203,66.1656726 L56.0776337,66.1656726 L56.0776337,74.5447316 L46.8396194,74.5447316 L46.8396194,66.1656726 L39.4059048,66.1656726 L39.4059048,63.2041087 L46.8396194,63.2041087 L46.8396194,56.3419483 L38.5398409,56.3419483 L38.5398409,53.3803844 L45.4683516,53.3803844 L37.4572611,37.9946985 L47.0561353,37.9946985 L51.4586265,47.2405567 L55.8611177,37.9946985 L65.459992,37.9946985 L57.4489014,53.3803844 L64.5217561,53.3803844 Z" id="Shape"></path>
                </g>
            </g>
        </g>
    </g>
</svg>