<?xml version="1.0" encoding="UTF-8"?>
<svg width="41px" height="58px" viewBox="0 0 41 58" version="1.1" xmlns="http://www.w3.org/2000/svg" xmlns:xlink="http://www.w3.org/1999/xlink">
    <!-- Generator: Sketch 49.3 (51167) - http://www.bohemiancoding.com/sketch -->
    <title>pcxiangxia@3x</title>
    <desc>Created with Sketch.</desc>
    <defs></defs>
    <g id="Page-1" stroke="none" stroke-width="1" fill="none" fill-rule="evenodd">
        <g id="pc端" transform="translate(-940.000000, -919.000000)" fill="#FFFFFF" fill-rule="nonzero">
            <g id="pcxiangxia" transform="translate(940.000000, 919.000000)">
                <path d="M21.6130633,57.5383825 L40.5386879,38.7288426 C41.1537707,38.1175326 41.1537707,37.1237619 40.5386879,36.5124519 C39.9236051,35.9011418 38.9237013,35.9011418 38.3086185,36.5124519 L22.0767411,52.6447672 L22.0767411,1.56746166 C22.0767411,0.702222823 21.3701844,0 20.4996057,0 C19.629027,0 18.9224703,0.702222823 18.9224703,1.56746166 L18.9224703,52.6447672 L2.69059296,36.5124519 C2.07551016,35.9011418 1.07560633,35.9011418 0.460523532,36.5124519 C0.151404997,36.8196743 0,37.2209445 0,37.6222147 C0,38.0234849 0.154559268,38.4247551 0.460523532,38.7319776 L19.3861481,57.5415175 C20.0012309,58.1528275 21.0011348,58.1528275 21.6162176,57.5415175 L21.6130633,57.5383825 Z" id="Shape"></path>
            </g>
        </g>
    </g>
</svg>