<?xml version="1.0" encoding="UTF-8"?>
<svg width="175px" height="162px" viewBox="0 0 175 162" version="1.1" xmlns="http://www.w3.org/2000/svg" xmlns:xlink="http://www.w3.org/1999/xlink">
    <!-- Generator: Sketch 49.3 (51167) - http://www.bohemiancoding.com/sketch -->
    <title>pcyue@3x</title>
    <desc>Created with Sketch.</desc>
    <defs></defs>
    <g id="Page-1" stroke="none" stroke-width="1" fill="none" fill-rule="evenodd">
        <g id="pc端" transform="translate(-874.000000, -12236.000000)" fill="#8CE2F7" fill-rule="nonzero">
            <g id="pcyue" transform="translate(874.000000, 12236.000000)">
                <path d="M150.00028,13 L129.718404,13 L129.718404,32.5930177 C129.718404,38.5719715 124.839346,43.4187525 118.820028,43.4187525 C112.800711,43.4187525 107.921653,38.5722148 107.921653,32.5930177 L107.921653,13 L67.1596897,13 L67.1596897,32.5930177 C67.1596897,38.5719715 62.2806318,43.4187525 56.261314,43.4187525 C50.2419962,43.4187525 45.3629385,38.5722148 45.3629385,32.5930177 L45.3629385,13 L24.9999651,13 C11.2497149,13 0,24.1747323 0,37.8330899 L0,137.166423 C0,150.824781 11.2497147,162 24.9999651,162 L150.00028,162 C163.749795,162 175,150.825268 175,137.166423 L175,37.8330899 C175.000245,24.1747323 163.75004,13 150.00028,13 Z M162.500017,137.16691 C162.500017,143.995724 156.874915,149.583333 150.00028,149.583333 L24.9999651,149.583333 C18.125085,149.583333 12.4999825,143.995724 12.4999825,137.16691 L12.4999825,62.6664234 L162.500017,62.6664234 L162.500017,137.16691 Z" id="Shape"></path>
                <path d="M62.4889424,30.8378431 C62.4889424,34.2410777 59.6931114,37.0000002 56.2443487,37 C52.795586,37 50,34.2410775 50,30.8378431 L50,6.16191541 C50.0002448,2.75892226 52.795586,0 56.2445935,0 C59.6933562,0 62.4891871,2.75892246 62.4891871,6.16191541 L62.4889424,30.8378431 Z M125,30.8378431 C125,34.2410777 122.204414,37.0000002 118.755406,37 C115.306644,37 112.510813,34.2410775 112.510813,30.8378431 L112.510813,6.16191541 C112.510813,2.75892226 115.306644,0 118.755406,0 C122.204414,0 125,2.75892246 125,6.16191541 L125,30.8378431 Z" id="Shape"></path>
                <path d="M60.7760502,79.2257896 C60.7760502,75.2743896 63.1357906,73.1991263 67.8552712,73 L110.920533,73 C115.64026,73 118,75.1772969 118,79.5222557 L118,131.403836 C117.801634,135.749042 115.736861,138.120771 111.805436,138.519271 C107.27965,138.713703 102.855137,138.120771 98.5318961,136.740227 C96.1721557,135.749042 95.2874989,134.266711 95.8774342,132.293234 C96.6610646,129.921505 98.3340221,128.837921 100.891882,129.032354 C101.481326,129.231727 102.264956,129.430606 103.251623,129.625286 C107.183049,130.616471 109.049701,130.217971 108.85576,128.439174 L108.85576,116.284308 L69.3301091,116.284308 C68.3436884,125.576299 66.5738832,132.589948 64.0206932,137.333159 C62.2508879,139.704889 59.9879952,140.492253 57.2361938,139.704889 C54.8764534,138.519271 54.3833659,136.5411 55.7613561,133.775565 C59.1028469,127.452436 60.7758045,117.173707 60.7758045,102.94333 L60.7758045,79.2257896 L60.7760502,79.2257896 Z M69.6250766,98.79231 L69.6250766,107.982761 L108.855514,107.982761 L108.855514,98.79231 L69.6250766,98.79231 Z M72.5747521,81.3008056 C70.606581,81.3008056 69.7219242,82.4866702 69.9200441,84.8581527 L69.9200441,90.4912571 L108.855514,90.4912571 L108.855514,84.8583999 C108.855514,82.4866704 108.067705,81.3010528 106.495774,81.3010528 L72.5747521,81.3010528 L72.5747521,81.3008056 Z" id="Shape"></path>
            </g>
        </g>
    </g>
</svg>