<?xml version="1.0" encoding="UTF-8"?>
<svg width="168px" height="207px" viewBox="0 0 168 207" version="1.1" xmlns="http://www.w3.org/2000/svg" xmlns:xlink="http://www.w3.org/1999/xlink">
    <!-- Generator: Sketch 49.3 (51167) - http://www.bohemiancoding.com/sketch -->
    <title>pczy3@3x</title>
    <desc>Created with Sketch.</desc>
    <defs>
        <filter x="-4.4%" y="-2.5%" width="108.8%" height="107.0%" filterUnits="objectBoundingBox" id="filter-1">
            <feOffset dx="0" dy="2" in="SourceAlpha" result="shadowOffsetOuter1"></feOffset>
            <feGaussianBlur stdDeviation="2" in="shadowOffsetOuter1" result="shadowBlurOuter1"></feGaussianBlur>
            <feColorMatrix values="0 0 0 0 0   0 0 0 0 0   0 0 0 0 0  0 0 0 0.239639946 0" type="matrix" in="shadowBlurOuter1" result="shadowMatrixOuter1"></feColorMatrix>
            <feMerge>
                <feMergeNode in="shadowMatrixOuter1"></feMergeNode>
                <feMergeNode in="SourceGraphic"></feMergeNode>
            </feMerge>
        </filter>
    </defs>
    <g id="Page-1" stroke="none" stroke-width="1" fill="none" fill-rule="evenodd">
        <g id="pc端" transform="translate(-1410.000000, -11317.000000)" fill="#FFFFFF" fill-rule="nonzero">
            <g id="pczy3" filter="url(#filter-1)" transform="translate(1414.000000, 11319.000000)">
                <path d="M80,43.5 C36.25,43.5 1.25,78 1.25,121.25 C1.25,164.5 36.25,199 80,199 C123.75,199 158.75,164.5 158.75,121.25 C158.75,78 124,43.5 80,43.5 Z M95.67,147.41 C91.1687296,150.957783 85.56958,152.821808 79.84,152.68 C70.32,152.68 63.21,149.68 58.57,143.68 C54.49,138.56 52.49,131.68 52.49,123.05 C52.49,114.57 54.57,107.62 58.81,102.34 C63.61,96.26 70.56,93.34 79.68,93.34 C86.4,93.34 91.99,95.09 96.31,98.61 C100.492013,102.05968 103.185012,106.987295 103.83,112.37 L94.71,112.37 C93.71,108.61 91.99,105.89 89.35,104.13 C86.71,102.37 83.52,101.57 79.52,101.57 C73.52,101.57 69.05,103.57 66.01,107.73 C63.21,111.41 61.85,116.52 61.85,123.08 C61.85,129.8 63.21,134.99 65.93,138.59 C68.93,142.43 73.52,144.43 79.76,144.43 C83.3324802,144.556424 86.8470616,143.502049 89.76,141.43 C92.48,139.27 94.4,135.99 95.52,131.67 L104.64,131.67 C103.35,138.45 100.39,143.65 95.67,147.41 Z" id="Shape"></path>
                <path d="M23.25,52.25 C42.5,35.75 73.75,32.25 73.75,32.25 L59.5,3.75 C59.5,1.25 57,0 54.25,0 L6.5,0 C2.75,0 0,2.5 0,5 C0,6.25 0,7.5 1.25,7.5 L23.25,52.25 Z" id="Shape"></path>
                <path d="M155,0.25 L106,0.25 C103.5,0.25 100.75,1.5 100.75,4 L85.25,32 C85.25,32 117.5,33.25 136.75,52.5 L158.75,8 C159.463561,7.35148747 159.909326,6.45995594 160,5.5 C159.921295,2.72879684 157.764071,0.463711841 155,0.25 Z" id="Shape"></path>
            </g>
        </g>
    </g>
</svg>